<svg width="312" height="84" viewBox="0 0 312 84" fill="none" xmlns="http://www.w3.org/2000/svg">
<path d="M93.4581 56L86.0689 29.8182H91.1698L95.8871 49.0582H96.13L101.167 29.8182H105.808L110.857 49.071H111.087L115.805 29.8182H120.906L113.516 56H108.837L103.596 37.6293H103.391L98.1371 56H93.4581ZM127.538 44.4943V56H122.91V29.8182H127.435V39.7003H127.665C128.126 38.5923 128.837 37.7187 129.8 37.0795C130.772 36.4318 132.008 36.108 133.508 36.108C134.871 36.108 136.06 36.3935 137.074 36.9645C138.089 37.5355 138.873 38.3707 139.427 39.4702C139.989 40.5696 140.271 41.9119 140.271 43.4972V56H135.643V44.2131C135.643 42.892 135.302 41.8651 134.62 41.1321C133.947 40.3906 133.001 40.0199 131.782 40.0199C130.964 40.0199 130.231 40.1989 129.583 40.5568C128.944 40.9062 128.441 41.4134 128.074 42.0781C127.717 42.7429 127.538 43.5483 127.538 44.4943ZM143.908 56V36.3636H148.536V56H143.908ZM146.235 33.5767C145.502 33.5767 144.871 33.3338 144.343 32.848C143.814 32.3537 143.55 31.7614 143.55 31.071C143.55 30.3722 143.814 29.7798 144.343 29.294C144.871 28.7997 145.502 28.5526 146.235 28.5526C146.976 28.5526 147.607 28.7997 148.127 29.294C148.655 29.7798 148.919 30.3722 148.919 31.071C148.919 31.7614 148.655 32.3537 148.127 32.848C147.607 33.3338 146.976 33.5767 146.235 33.5767ZM162.02 36.3636V39.9432H150.732V36.3636H162.02ZM153.519 31.6591H158.146V50.0938C158.146 50.7159 158.24 51.1932 158.428 51.5256C158.624 51.8494 158.879 52.071 159.195 52.1903C159.51 52.3097 159.859 52.3693 160.243 52.3693C160.533 52.3693 160.797 52.348 161.036 52.3054C161.283 52.2628 161.47 52.2244 161.598 52.1903L162.378 55.8082C162.131 55.8935 161.777 55.9872 161.317 56.0895C160.865 56.1918 160.311 56.2514 159.655 56.2685C158.496 56.3026 157.452 56.1278 156.523 55.7443C155.594 55.3523 154.857 54.7472 154.311 53.929C153.774 53.1108 153.51 52.0881 153.519 50.8608V31.6591ZM173.293 56.3835C171.324 56.3835 169.624 55.9744 168.192 55.1562C166.768 54.3295 165.673 53.1619 164.906 51.6534C164.139 50.1364 163.756 48.3509 163.756 46.2969C163.756 44.277 164.139 42.5043 164.906 40.9787C165.682 39.4446 166.764 38.2514 168.153 37.3991C169.543 36.5384 171.175 36.108 173.05 36.108C174.26 36.108 175.402 36.304 176.476 36.696C177.558 37.0795 178.513 37.6761 179.339 38.4858C180.175 39.2955 180.831 40.3267 181.308 41.5795C181.785 42.8239 182.024 44.3068 182.024 46.0284V47.4474H165.929V44.3281H177.588C177.58 43.4418 177.388 42.6534 177.013 41.9631C176.638 41.2642 176.114 40.7145 175.44 40.3139C174.776 39.9134 174 39.7131 173.114 39.7131C172.168 39.7131 171.337 39.9432 170.621 40.4034C169.905 40.8551 169.347 41.4517 168.946 42.1932C168.554 42.9261 168.354 43.7315 168.345 44.6094V47.3324C168.345 48.4744 168.554 49.4545 168.972 50.2727C169.389 51.0824 169.973 51.7045 170.723 52.1392C171.473 52.5653 172.351 52.7784 173.357 52.7784C174.03 52.7784 174.639 52.6847 175.185 52.4972C175.73 52.3011 176.203 52.0156 176.604 51.6406C177.004 51.2656 177.307 50.8011 177.511 50.2472L181.832 50.733C181.56 51.875 181.04 52.8722 180.273 53.7244C179.514 54.5682 178.543 55.2244 177.358 55.6932C176.173 56.1534 174.818 56.3835 173.293 56.3835ZM215.324 38.652H210.543C210.406 37.8679 210.155 37.1733 209.788 36.5682C209.422 35.9545 208.966 35.4347 208.421 35.0085C207.875 34.5824 207.253 34.2628 206.554 34.0497C205.864 33.8281 205.118 33.7173 204.317 33.7173C202.894 33.7173 201.632 34.0753 200.533 34.7912C199.433 35.4986 198.573 36.5384 197.95 37.9105C197.328 39.2741 197.017 40.9403 197.017 42.9091C197.017 44.9119 197.328 46.5994 197.95 47.9716C198.581 49.3352 199.442 50.3665 200.533 51.0653C201.632 51.7557 202.889 52.1009 204.304 52.1009C205.088 52.1009 205.821 51.9986 206.503 51.794C207.193 51.581 207.811 51.2699 208.357 50.8608C208.911 50.4517 209.375 49.9489 209.75 49.3523C210.134 48.7557 210.398 48.0739 210.543 47.3068L215.324 47.3324C215.145 48.5767 214.757 49.7443 214.161 50.8352C213.573 51.9261 212.801 52.8892 211.847 53.7244C210.892 54.5511 209.776 55.1989 208.497 55.6676C207.219 56.1278 205.8 56.358 204.24 56.358C201.939 56.358 199.885 55.8253 198.078 54.7599C196.271 53.6946 194.848 52.1562 193.808 50.1449C192.769 48.1335 192.249 45.7216 192.249 42.9091C192.249 40.0881 192.773 37.6761 193.821 35.6733C194.869 33.6619 196.297 32.1236 198.104 31.0582C199.911 29.9929 201.956 29.4602 204.24 29.4602C205.698 29.4602 207.053 29.6648 208.306 30.0739C209.558 30.483 210.675 31.0838 211.655 31.8764C212.635 32.6605 213.44 33.6236 214.071 34.7656C214.71 35.8991 215.128 37.1946 215.324 38.652ZM226.948 56.3835C225.031 56.3835 223.369 55.9616 221.962 55.1179C220.556 54.2741 219.465 53.0937 218.69 51.5767C217.923 50.0597 217.539 48.2869 217.539 46.2585C217.539 44.2301 217.923 42.4531 218.69 40.9276C219.465 39.402 220.556 38.2173 221.962 37.3736C223.369 36.5298 225.031 36.108 226.948 36.108C228.866 36.108 230.528 36.5298 231.934 37.3736C233.34 38.2173 234.427 39.402 235.194 40.9276C235.969 42.4531 236.357 44.2301 236.357 46.2585C236.357 48.2869 235.969 50.0597 235.194 51.5767C234.427 53.0937 233.34 54.2741 231.934 55.1179C230.528 55.9616 228.866 56.3835 226.948 56.3835ZM226.974 52.6761C228.014 52.6761 228.883 52.3906 229.582 51.8196C230.281 51.2401 230.8 50.4645 231.141 49.4929C231.491 48.5213 231.666 47.4389 231.666 46.2457C231.666 45.044 231.491 43.9574 231.141 42.9858C230.8 42.0057 230.281 41.2259 229.582 40.6463C228.883 40.0668 228.014 39.777 226.974 39.777C225.908 39.777 225.022 40.0668 224.315 40.6463C223.616 41.2259 223.092 42.0057 222.742 42.9858C222.401 43.9574 222.231 45.044 222.231 46.2457C222.231 47.4389 222.401 48.5213 222.742 49.4929C223.092 50.4645 223.616 51.2401 224.315 51.8196C225.022 52.3906 225.908 52.6761 226.974 52.6761ZM246.492 56.3452C244.95 56.3452 243.569 55.9489 242.35 55.1562C241.131 54.3636 240.168 53.2131 239.461 51.7045C238.753 50.196 238.4 48.3636 238.4 46.2074C238.4 44.0256 238.758 42.1847 239.474 40.6847C240.198 39.1761 241.174 38.0384 242.401 37.2713C243.628 36.4957 244.996 36.108 246.505 36.108C247.655 36.108 248.601 36.304 249.343 36.696C250.084 37.0795 250.673 37.544 251.107 38.0895C251.542 38.6264 251.878 39.1335 252.117 39.6108H252.309V29.8182H256.95V56H252.398V52.9062H252.117C251.878 53.3835 251.533 53.8906 251.082 54.4276C250.63 54.956 250.033 55.4077 249.292 55.7827C248.55 56.1577 247.617 56.3452 246.492 56.3452ZM247.783 52.5483C248.763 52.5483 249.599 52.2841 250.289 51.7557C250.979 51.2187 251.503 50.473 251.861 49.5185C252.219 48.5639 252.398 47.4517 252.398 46.1818C252.398 44.9119 252.219 43.8082 251.861 42.8707C251.512 41.9332 250.992 41.2045 250.302 40.6847C249.62 40.1648 248.78 39.9048 247.783 39.9048C246.752 39.9048 245.891 40.1733 245.201 40.7102C244.511 41.2472 243.991 41.9886 243.641 42.9347C243.292 43.8807 243.117 44.9631 243.117 46.1818C243.117 47.4091 243.292 48.5043 243.641 49.4673C243.999 50.4219 244.523 51.1761 245.214 51.7301C245.913 52.2756 246.769 52.5483 247.783 52.5483ZM269.494 56.3835C267.525 56.3835 265.825 55.9744 264.393 55.1562C262.97 54.3295 261.875 53.1619 261.108 51.6534C260.341 50.1364 259.957 48.3509 259.957 46.2969C259.957 44.277 260.341 42.5043 261.108 40.9787C261.883 39.4446 262.966 38.2514 264.355 37.3991C265.744 36.5384 267.376 36.108 269.251 36.108C270.461 36.108 271.604 36.304 272.677 36.696C273.76 37.0795 274.714 37.6761 275.541 38.4858C276.376 39.2955 277.033 40.3267 277.51 41.5795C277.987 42.8239 278.226 44.3068 278.226 46.0284V47.4474H262.131V44.3281H273.79C273.781 43.4418 273.589 42.6534 273.214 41.9631C272.839 41.2642 272.315 40.7145 271.642 40.3139C270.977 39.9134 270.202 39.7131 269.315 39.7131C268.369 39.7131 267.538 39.9432 266.822 40.4034C266.106 40.8551 265.548 41.4517 265.148 42.1932C264.756 42.9261 264.555 43.7315 264.547 44.6094V47.3324C264.547 48.4744 264.756 49.4545 265.173 50.2727C265.591 51.0824 266.175 51.7045 266.925 52.1392C267.675 52.5653 268.552 52.7784 269.558 52.7784C270.231 52.7784 270.841 52.6847 271.386 52.4972C271.932 52.3011 272.405 52.0156 272.805 51.6406C273.206 51.2656 273.508 50.8011 273.713 50.2472L278.034 50.733C277.761 51.875 277.241 52.8722 276.474 53.7244C275.716 54.5682 274.744 55.2244 273.559 55.6932C272.375 56.1534 271.02 56.3835 269.494 56.3835ZM281.061 56V36.3636H285.548V39.6364H285.753C286.111 38.5028 286.724 37.6293 287.593 37.0156C288.471 36.3935 289.473 36.0824 290.598 36.0824C290.853 36.0824 291.139 36.0952 291.454 36.1207C291.778 36.1378 292.047 36.1676 292.26 36.2102V40.4673C292.064 40.3991 291.753 40.3395 291.326 40.2884C290.909 40.2287 290.504 40.1989 290.112 40.1989C289.268 40.1989 288.51 40.3821 287.836 40.7486C287.172 41.1065 286.647 41.6051 286.264 42.2443C285.88 42.8835 285.689 43.6207 285.689 44.456V56H281.061ZM309.774 41.554L305.555 42.0142C305.436 41.5881 305.227 41.1875 304.929 40.8125C304.639 40.4375 304.247 40.1349 303.753 39.9048C303.259 39.6747 302.653 39.5597 301.937 39.5597C300.974 39.5597 300.165 39.7685 299.509 40.1861C298.861 40.6037 298.541 41.1449 298.55 41.8097C298.541 42.3807 298.75 42.8452 299.176 43.2031C299.611 43.5611 300.327 43.8551 301.324 44.0852L304.673 44.8011C306.531 45.2017 307.912 45.8366 308.815 46.706C309.727 47.5753 310.187 48.7131 310.196 50.1193C310.187 51.3551 309.825 52.446 309.109 53.392C308.402 54.3295 307.418 55.0625 306.156 55.5909C304.895 56.1193 303.446 56.3835 301.81 56.3835C299.406 56.3835 297.472 55.8807 296.006 54.875C294.54 53.8608 293.666 52.4503 293.385 50.6435L297.898 50.2088C298.102 51.0952 298.537 51.7642 299.202 52.2159C299.866 52.6676 300.732 52.8935 301.797 52.8935C302.896 52.8935 303.778 52.6676 304.443 52.2159C305.116 51.7642 305.453 51.206 305.453 50.5412C305.453 49.9787 305.236 49.5142 304.801 49.1477C304.375 48.7812 303.71 48.5 302.807 48.304L299.457 47.6009C297.574 47.2088 296.18 46.5483 295.277 45.6193C294.374 44.6818 293.926 43.4972 293.935 42.0653C293.926 40.8551 294.254 39.8068 294.919 38.9205C295.592 38.0256 296.526 37.3352 297.719 36.8494C298.92 36.3551 300.305 36.108 301.874 36.108C304.175 36.108 305.986 36.598 307.307 37.5781C308.636 38.5582 309.459 39.8835 309.774 41.554Z" fill="black"/>
<path d="M35.9949 3.58268L3.49694 22.4221C2.87986 22.7798 2.5 23.4391 2.5 24.1523V59.862C2.5 60.5675 2.87178 61.2209 3.47835 61.5813L35.9888 80.8991C36.613 81.27 37.3891 81.2735 38.0166 80.9083L69.5061 62.5785C70.1215 62.2203 70.5 61.562 70.5 60.85V23.65C70.5 22.938 70.1215 22.2797 69.5061 21.9215L38.0041 3.58446C37.3833 3.22309 36.6163 3.22241 35.9949 3.58268Z" stroke="black" stroke-width="5"/>
<path d="M16 27L25.9999 56.9997C25.9999 56.9998 26.0001 56.9998 26.0001 56.9997L35.1252 31.9057C35.4364 31.0499 36.6363 31.0215 36.9876 31.8616L47.4999 56.9997C47.4999 56.9998 47.5001 56.9998 47.5001 56.9997L57 27" stroke="black" stroke-width="7"/>
</svg>
